<svg xmlns="http://www.w3.org/2000/svg" xmlns:xlink="http://www.w3.org/1999/xlink" viewBox="0 0 50 50"><defs><style>.a{fill:url(#a);}</style><linearGradient id="a" x1="40.54" y1="51.92" x2="9.46" y2="-1.92" gradientUnits="userSpaceOnUse"><stop offset="0" stop-color="#ed1c24"/><stop offset="0.24" stop-color="#e4e404"/><stop offset="0.26" stop-color="#d6e604"/><stop offset="0.31" stop-color="#b0ea03"/><stop offset="0.38" stop-color="#73f102"/><stop offset="0.46" stop-color="#1ffb01"/><stop offset="0.48" stop-color="lime"/><stop offset="0.51" stop-color="#00db24"/><stop offset="0.59" stop-color="#007e81"/><stop offset="0.65" stop-color="#003ac5"/><stop offset="0.7" stop-color="#0010ef"/><stop offset="0.72" stop-color="blue"/><stop offset="0.77" stop-color="#200edd"/><stop offset="0.84" stop-color="#3e1bbc"/><stop offset="0.9" stop-color="#5425a4"/><stop offset="0.95" stop-color="#612b96"/><stop offset="1" stop-color="#662d91"/></linearGradient></defs><title>d-rainbow</title><rect class="a" x="0.5" y="0.5" width="49" height="49" rx="6.5"/><path d="M43,1a6,6,0,0,1,6,6V43a6,6,0,0,1-6,6H7a6,6,0,0,1-6-6V7A6,6,0,0,1,7,1H43m0-1H7A7,7,0,0,0,0,7V43a7,7,0,0,0,7,7H43a7,7,0,0,0,7-7V7a7,7,0,0,0-7-7Z"/></svg>